# xmcd
#
# Track frame offsets:
#   150
#   11747
#   34950
#   51296
#   63283
#   73777
#   82664
#   108624
#   123175
#   133672
#   150207
#   175597
#   189478
#   203355
#   217803
#   236277
#   247389
#   256473
#
# Disc length: 3611 seconds
#
# Revision: 0
# Processed by: cddbd v1.4PL0 Copyright (c) Steve Scherf et al.
# Submitted via: uFREEDB 1.6.0
#
DISCID=ed0e1912
DTITLE=The Yardbirds - The Very Best of the Yardbirds [CD2)
DYEAR=2001
DGENRE=Blues
TTITLE0=Got Love If You Want
TTITLE1=Five Long Years
TTITLE2=Louise
TTITLE3=Baby, What's Wrong
TTITLE4=Honey In Your Lips
TTITLE5=Talkin' 'Bout You
TTITLE6=Take It Easy Baby (Vocal: Sonny Boy Williamson)
TTITLE7=Highway 69 (Vocal: Sonny Boy Williamson)
TTITLE8=Putty (In Your Hands)
TTITLE9=I Ain't Done Wrong
TTITLE10=My Girl Sloopy
TTITLE11=Jeff's Blues
TTITLE12=Like Jimmy Reed Again
TTITLE13=What Do You Think
TTITLE14=Here 'Tis
TTITLE15=For Your Love
TTITLE16=I Ain't Got You
TTITLE17=Train Kept A'Rollin'
EXTD=
EXTT0=
EXTT1=
EXTT2=
EXTT3=
EXTT4=
EXTT5=
EXTT6=
EXTT7=
EXTT8=
EXTT9=
EXTT10=
EXTT11=
EXTT12=
EXTT13=
EXTT14=
EXTT15=
EXTT16=
EXTT17=
PLAYORDER=
